Cast:
Molly Black, Guy Burnet, Andrew Howard, Lorry O'Toole, Juliet Quintin-Archard

Plot:
A deranged psychotic spends his summer day deciding how to deal with the 3 captives he has chained up on his land. With only his own troubled mind and his dim-witted companion available to guide him and the fate of his victims, the disturbed man makes violent choice after violent choice. No one is safe and no taboo is left unbroken.


INFO, POSTER and TRAILER:
        
http://www.sharepixon.net/movies/pig

	

SCREENSHOTS:
       
http://img.sharepixon.net/?v=pig1.png 
http://img.sharepixon.net/?v=pig2.png



	
Video
ID : 0
Format : MPEG-4 Visual
Format profile : Advanced Simple@L5
Format settings, BVOP : Yes
Format settings, QPel : No
Format settings, GMC : No warppoints
Format settings, Matrix : Custom
Codec ID : XVID
Codec ID/Hint : XviD
Duration : 1h 33mn
Bit rate : 1498Kbps
Width : 720ixels
Height : 304pixels
Display aspect ratio : 2:35
Frame rate : 25.000fps
Color space : YUV
Chroma subsampling : 4:2:0
Bit depth : 8 bits
Scan type : Progressive
Bits/(Pixel*Frame) : 0.234
Stream size : 892 MiB (86%)
Writing library : XviD 1.2.1 (UTC 2008-12-04)

Audio
ID : 1
Format : MP3
Format/Info : Version 1
Mode extension : MPEG
Codec ID : 2000
Duration : 1h 33mn
Bit rate mode : Constant
Bit rate : 128bps
Channel(s) : 2channels
Channel positions : Front: L R
Sampling rate : 48.0 KHz
Bit depth : 16 bits
Stream size : 302 MiB
Alignment : Aligned on interleaves
Interleave, duration : 42 ms (1.00 video frame)
Interleave, preload duration : 512 ms